<?xml version="1.0" encoding="UTF-8"?>
<svg xmlns="http://www.w3.org/2000/svg" xmlns:xlink="http://www.w3.org/1999/xlink" width="3500" height="3500" viewBox="0 0 3500 3500">
<defs>
<clipPath id="clip-0">
<path clip-rule="nonzero" d="M 0.375 0 C 0.277344 0 0.179688 0.0390625 0.109375 0.109375 C 0.0390625 0.179688 0 0.28125 0 0.371094 L 0 3499.125 C 0 3499.332031 0.167969 3499.5 0.375 3499.5 L 3499.128906 3499.5 C 3499.230469 3499.5 3499.320312 3499.460938 3499.390625 3499.390625 C 3499.460938 3499.320312 3499.5 3499.226562 3499.5 3499.125 L 3499.5 0.371094 C 3499.5 0.171875 3499.328125 0 3499.128906 0 Z M 0.375 0 "/>
</clipPath>
<clipPath id="clip-1">
<path clip-rule="nonzero" d="M 0.375 0 C 0.277344 0 0.179688 0.0390625 0.109375 0.109375 C 0.0390625 0.179688 0 0.28125 0 0.371094 L 0 3499.125 C 0 3499.332031 0.167969 3499.5 0.375 3499.5 L 3499.128906 3499.5 C 3499.230469 3499.5 3499.320312 3499.460938 3499.390625 3499.390625 C 3499.460938 3499.320312 3499.5 3499.226562 3499.5 3499.125 L 3499.5 0.371094 C 3499.5 0.171875 3499.328125 0 3499.128906 0 Z M 0.375 0 "/>
</clipPath>
<radialGradient id="radial-pattern-0" gradientUnits="userSpaceOnUse" cx="255.18675" cy="528.93825" fx="255.18675" fy="528.93825" r="2277.1725" gradientTransform="matrix(1, 0, 0, 1, 1494.56, 1220.81)">
<stop offset="0" stop-color="rgb(14.872742%, 42.268372%, 96.281433%)" stop-opacity="1"/>
<stop offset="0.00390625" stop-color="rgb(14.813232%, 42.103577%, 95.904541%)" stop-opacity="1"/>
<stop offset="0.0078125" stop-color="rgb(14.755249%, 41.938782%, 95.527649%)" stop-opacity="1"/>
<stop offset="0.0117188" stop-color="rgb(14.697266%, 41.772461%, 95.150757%)" stop-opacity="1"/>
<stop offset="0.015625" stop-color="rgb(14.639282%, 41.607666%, 94.773865%)" stop-opacity="1"/>
<stop offset="0.0195312" stop-color="rgb(14.581299%, 41.441345%, 94.396973%)" stop-opacity="1"/>
<stop offset="0.0234375" stop-color="rgb(14.523315%, 41.27655%, 94.020081%)" stop-opacity="1"/>
<stop offset="0.0273438" stop-color="rgb(14.463806%, 41.111755%, 93.643188%)" stop-opacity="1"/>
<stop offset="0.03125" stop-color="rgb(14.405823%, 40.945435%, 93.266296%)" stop-opacity="1"/>
<stop offset="0.0351562" stop-color="rgb(14.347839%, 40.78064%, 92.889404%)" stop-opacity="1"/>
<stop offset="0.0390625" stop-color="rgb(14.289856%, 40.614319%, 92.512512%)" stop-opacity="1"/>
<stop offset="0.0429688" stop-color="rgb(14.231873%, 40.449524%, 92.13562%)" stop-opacity="1"/>
<stop offset="0.046875" stop-color="rgb(14.173889%, 40.283203%, 91.758728%)" stop-opacity="1"/>
<stop offset="0.0507812" stop-color="rgb(14.115906%, 40.118408%, 91.381836%)" stop-opacity="1"/>
<stop offset="0.0546875" stop-color="rgb(14.056396%, 39.953613%, 91.004944%)" stop-opacity="1"/>
<stop offset="0.0585938" stop-color="rgb(13.998413%, 39.787292%, 90.628052%)" stop-opacity="1"/>
<stop offset="0.0625" stop-color="rgb(13.94043%, 39.622498%, 90.25116%)" stop-opacity="1"/>
<stop offset="0.0664062" stop-color="rgb(13.882446%, 39.456177%, 89.874268%)" stop-opacity="1"/>
<stop offset="0.0703125" stop-color="rgb(13.824463%, 39.291382%, 89.497375%)" stop-opacity="1"/>
<stop offset="0.0742188" stop-color="rgb(13.766479%, 39.125061%, 89.120483%)" stop-opacity="1"/>
<stop offset="0.078125" stop-color="rgb(13.708496%, 38.960266%, 88.743591%)" stop-opacity="1"/>
<stop offset="0.0820312" stop-color="rgb(13.648987%, 38.795471%, 88.366699%)" stop-opacity="1"/>
<stop offset="0.0859375" stop-color="rgb(13.591003%, 38.62915%, 87.989807%)" stop-opacity="1"/>
<stop offset="0.0898438" stop-color="rgb(13.53302%, 38.464355%, 87.612915%)" stop-opacity="1"/>
<stop offset="0.09375" stop-color="rgb(13.475037%, 38.298035%, 87.236023%)" stop-opacity="1"/>
<stop offset="0.0976562" stop-color="rgb(13.417053%, 38.13324%, 86.859131%)" stop-opacity="1"/>
<stop offset="0.101562" stop-color="rgb(13.35907%, 37.966919%, 86.482239%)" stop-opacity="1"/>
<stop offset="0.105469" stop-color="rgb(13.299561%, 37.802124%, 86.105347%)" stop-opacity="1"/>
<stop offset="0.109375" stop-color="rgb(13.241577%, 37.637329%, 85.728455%)" stop-opacity="1"/>
<stop offset="0.113281" stop-color="rgb(13.183594%, 37.471008%, 85.353088%)" stop-opacity="1"/>
<stop offset="0.117188" stop-color="rgb(13.12561%, 37.306213%, 84.976196%)" stop-opacity="1"/>
<stop offset="0.121094" stop-color="rgb(13.067627%, 37.139893%, 84.599304%)" stop-opacity="1"/>
<stop offset="0.125" stop-color="rgb(13.009644%, 36.975098%, 84.222412%)" stop-opacity="1"/>
<stop offset="0.128906" stop-color="rgb(12.95166%, 36.810303%, 83.84552%)" stop-opacity="1"/>
<stop offset="0.132812" stop-color="rgb(12.892151%, 36.643982%, 83.468628%)" stop-opacity="1"/>
<stop offset="0.136719" stop-color="rgb(12.834167%, 36.479187%, 83.091736%)" stop-opacity="1"/>
<stop offset="0.140625" stop-color="rgb(12.776184%, 36.312866%, 82.714844%)" stop-opacity="1"/>
<stop offset="0.144531" stop-color="rgb(12.718201%, 36.148071%, 82.337952%)" stop-opacity="1"/>
<stop offset="0.148438" stop-color="rgb(12.660217%, 35.98175%, 81.96106%)" stop-opacity="1"/>
<stop offset="0.152344" stop-color="rgb(12.602234%, 35.816956%, 81.584167%)" stop-opacity="1"/>
<stop offset="0.15625" stop-color="rgb(12.54425%, 35.652161%, 81.207275%)" stop-opacity="1"/>
<stop offset="0.160156" stop-color="rgb(12.484741%, 35.48584%, 80.830383%)" stop-opacity="1"/>
<stop offset="0.164062" stop-color="rgb(12.426758%, 35.321045%, 80.453491%)" stop-opacity="1"/>
<stop offset="0.167969" stop-color="rgb(12.368774%, 35.154724%, 80.076599%)" stop-opacity="1"/>
<stop offset="0.171875" stop-color="rgb(12.310791%, 34.989929%, 79.699707%)" stop-opacity="1"/>
<stop offset="0.175781" stop-color="rgb(12.252808%, 34.823608%, 79.322815%)" stop-opacity="1"/>
<stop offset="0.179688" stop-color="rgb(12.194824%, 34.658813%, 78.945923%)" stop-opacity="1"/>
<stop offset="0.183594" stop-color="rgb(12.136841%, 34.494019%, 78.569031%)" stop-opacity="1"/>
<stop offset="0.1875" stop-color="rgb(12.077332%, 34.327698%, 78.192139%)" stop-opacity="1"/>
<stop offset="0.191406" stop-color="rgb(12.019348%, 34.162903%, 77.815247%)" stop-opacity="1"/>
<stop offset="0.195312" stop-color="rgb(11.961365%, 33.996582%, 77.438354%)" stop-opacity="1"/>
<stop offset="0.199219" stop-color="rgb(11.903381%, 33.831787%, 77.061462%)" stop-opacity="1"/>
<stop offset="0.203125" stop-color="rgb(11.845398%, 33.665466%, 76.68457%)" stop-opacity="1"/>
<stop offset="0.207031" stop-color="rgb(11.787415%, 33.500671%, 76.307678%)" stop-opacity="1"/>
<stop offset="0.210938" stop-color="rgb(11.727905%, 33.335876%, 75.930786%)" stop-opacity="1"/>
<stop offset="0.214844" stop-color="rgb(11.669922%, 33.169556%, 75.553894%)" stop-opacity="1"/>
<stop offset="0.21875" stop-color="rgb(11.611938%, 33.004761%, 75.177002%)" stop-opacity="1"/>
<stop offset="0.222656" stop-color="rgb(11.553955%, 32.83844%, 74.801636%)" stop-opacity="1"/>
<stop offset="0.226562" stop-color="rgb(11.495972%, 32.673645%, 74.424744%)" stop-opacity="1"/>
<stop offset="0.230469" stop-color="rgb(11.437988%, 32.507324%, 74.047852%)" stop-opacity="1"/>
<stop offset="0.234375" stop-color="rgb(11.380005%, 32.342529%, 73.670959%)" stop-opacity="1"/>
<stop offset="0.238281" stop-color="rgb(11.320496%, 32.177734%, 73.294067%)" stop-opacity="1"/>
<stop offset="0.242188" stop-color="rgb(11.262512%, 32.011414%, 72.917175%)" stop-opacity="1"/>
<stop offset="0.246094" stop-color="rgb(11.204529%, 31.846619%, 72.540283%)" stop-opacity="1"/>
<stop offset="0.25" stop-color="rgb(11.146545%, 31.680298%, 72.163391%)" stop-opacity="1"/>
<stop offset="0.253906" stop-color="rgb(11.088562%, 31.515503%, 71.786499%)" stop-opacity="1"/>
<stop offset="0.257812" stop-color="rgb(11.030579%, 31.350708%, 71.409607%)" stop-opacity="1"/>
<stop offset="0.261719" stop-color="rgb(10.972595%, 31.184387%, 71.032715%)" stop-opacity="1"/>
<stop offset="0.265625" stop-color="rgb(10.913086%, 31.019592%, 70.655823%)" stop-opacity="1"/>
<stop offset="0.269531" stop-color="rgb(10.855103%, 30.853271%, 70.278931%)" stop-opacity="1"/>
<stop offset="0.273438" stop-color="rgb(10.797119%, 30.688477%, 69.902039%)" stop-opacity="1"/>
<stop offset="0.277344" stop-color="rgb(10.739136%, 30.522156%, 69.525146%)" stop-opacity="1"/>
<stop offset="0.28125" stop-color="rgb(10.681152%, 30.357361%, 69.148254%)" stop-opacity="1"/>
<stop offset="0.285156" stop-color="rgb(10.623169%, 30.192566%, 68.771362%)" stop-opacity="1"/>
<stop offset="0.289062" stop-color="rgb(10.56366%, 30.026245%, 68.39447%)" stop-opacity="1"/>
<stop offset="0.292969" stop-color="rgb(10.505676%, 29.86145%, 68.017578%)" stop-opacity="1"/>
<stop offset="0.296875" stop-color="rgb(10.447693%, 29.695129%, 67.640686%)" stop-opacity="1"/>
<stop offset="0.300781" stop-color="rgb(10.389709%, 29.530334%, 67.263794%)" stop-opacity="1"/>
<stop offset="0.304688" stop-color="rgb(10.331726%, 29.364014%, 66.886902%)" stop-opacity="1"/>
<stop offset="0.308594" stop-color="rgb(10.273743%, 29.199219%, 66.51001%)" stop-opacity="1"/>
<stop offset="0.3125" stop-color="rgb(10.215759%, 29.034424%, 66.133118%)" stop-opacity="1"/>
<stop offset="0.316406" stop-color="rgb(10.15625%, 28.868103%, 65.756226%)" stop-opacity="1"/>
<stop offset="0.320312" stop-color="rgb(10.098267%, 28.703308%, 65.379333%)" stop-opacity="1"/>
<stop offset="0.324219" stop-color="rgb(10.040283%, 28.536987%, 65.002441%)" stop-opacity="1"/>
<stop offset="0.328125" stop-color="rgb(9.9823%, 28.372192%, 64.625549%)" stop-opacity="1"/>
<stop offset="0.332031" stop-color="rgb(9.924316%, 28.205872%, 64.250183%)" stop-opacity="1"/>
<stop offset="0.335938" stop-color="rgb(9.866333%, 28.041077%, 63.873291%)" stop-opacity="1"/>
<stop offset="0.339844" stop-color="rgb(9.80835%, 27.876282%, 63.496399%)" stop-opacity="1"/>
<stop offset="0.34375" stop-color="rgb(9.74884%, 27.709961%, 63.119507%)" stop-opacity="1"/>
<stop offset="0.347656" stop-color="rgb(9.690857%, 27.545166%, 62.742615%)" stop-opacity="1"/>
<stop offset="0.351562" stop-color="rgb(9.632874%, 27.378845%, 62.365723%)" stop-opacity="1"/>
<stop offset="0.355469" stop-color="rgb(9.57489%, 27.21405%, 61.988831%)" stop-opacity="1"/>
<stop offset="0.359375" stop-color="rgb(9.516907%, 27.049255%, 61.611938%)" stop-opacity="1"/>
<stop offset="0.363281" stop-color="rgb(9.458923%, 26.882935%, 61.235046%)" stop-opacity="1"/>
<stop offset="0.367188" stop-color="rgb(9.40094%, 26.71814%, 60.858154%)" stop-opacity="1"/>
<stop offset="0.371094" stop-color="rgb(9.341431%, 26.551819%, 60.481262%)" stop-opacity="1"/>
<stop offset="0.375" stop-color="rgb(9.283447%, 26.387024%, 60.10437%)" stop-opacity="1"/>
<stop offset="0.378906" stop-color="rgb(9.225464%, 26.220703%, 59.727478%)" stop-opacity="1"/>
<stop offset="0.382812" stop-color="rgb(9.16748%, 26.055908%, 59.350586%)" stop-opacity="1"/>
<stop offset="0.386719" stop-color="rgb(9.109497%, 25.891113%, 58.973694%)" stop-opacity="1"/>
<stop offset="0.390625" stop-color="rgb(9.051514%, 25.724792%, 58.596802%)" stop-opacity="1"/>
<stop offset="0.394531" stop-color="rgb(8.992004%, 25.559998%, 58.21991%)" stop-opacity="1"/>
<stop offset="0.398438" stop-color="rgb(8.934021%, 25.393677%, 57.843018%)" stop-opacity="1"/>
<stop offset="0.402344" stop-color="rgb(8.876038%, 25.228882%, 57.466125%)" stop-opacity="1"/>
<stop offset="0.40625" stop-color="rgb(8.818054%, 25.062561%, 57.089233%)" stop-opacity="1"/>
<stop offset="0.410156" stop-color="rgb(8.760071%, 24.897766%, 56.712341%)" stop-opacity="1"/>
<stop offset="0.414062" stop-color="rgb(8.702087%, 24.732971%, 56.335449%)" stop-opacity="1"/>
<stop offset="0.417969" stop-color="rgb(8.644104%, 24.56665%, 55.958557%)" stop-opacity="1"/>
<stop offset="0.421875" stop-color="rgb(8.584595%, 24.401855%, 55.581665%)" stop-opacity="1"/>
<stop offset="0.425781" stop-color="rgb(8.526611%, 24.235535%, 55.204773%)" stop-opacity="1"/>
<stop offset="0.429688" stop-color="rgb(8.468628%, 24.07074%, 54.827881%)" stop-opacity="1"/>
<stop offset="0.433594" stop-color="rgb(8.410645%, 23.904419%, 54.450989%)" stop-opacity="1"/>
<stop offset="0.4375" stop-color="rgb(8.352661%, 23.739624%, 54.074097%)" stop-opacity="1"/>
<stop offset="0.441406" stop-color="rgb(8.294678%, 23.574829%, 53.697205%)" stop-opacity="1"/>
<stop offset="0.445312" stop-color="rgb(8.236694%, 23.408508%, 53.321838%)" stop-opacity="1"/>
<stop offset="0.449219" stop-color="rgb(8.177185%, 23.243713%, 52.944946%)" stop-opacity="1"/>
<stop offset="0.453125" stop-color="rgb(8.119202%, 23.077393%, 52.568054%)" stop-opacity="1"/>
<stop offset="0.457031" stop-color="rgb(8.061218%, 22.912598%, 52.191162%)" stop-opacity="1"/>
<stop offset="0.460938" stop-color="rgb(8.003235%, 22.747803%, 51.81427%)" stop-opacity="1"/>
<stop offset="0.464844" stop-color="rgb(7.945251%, 22.581482%, 51.437378%)" stop-opacity="1"/>
<stop offset="0.46875" stop-color="rgb(7.887268%, 22.416687%, 51.060486%)" stop-opacity="1"/>
<stop offset="0.472656" stop-color="rgb(7.827759%, 22.250366%, 50.683594%)" stop-opacity="1"/>
<stop offset="0.476562" stop-color="rgb(7.769775%, 22.085571%, 50.306702%)" stop-opacity="1"/>
<stop offset="0.480469" stop-color="rgb(7.711792%, 21.91925%, 49.92981%)" stop-opacity="1"/>
<stop offset="0.484375" stop-color="rgb(7.653809%, 21.754456%, 49.552917%)" stop-opacity="1"/>
<stop offset="0.488281" stop-color="rgb(7.595825%, 21.589661%, 49.176025%)" stop-opacity="1"/>
<stop offset="0.492188" stop-color="rgb(7.537842%, 21.42334%, 48.799133%)" stop-opacity="1"/>
<stop offset="0.496094" stop-color="rgb(7.479858%, 21.258545%, 48.422241%)" stop-opacity="1"/>
<stop offset="0.5" stop-color="rgb(7.420349%, 21.092224%, 48.045349%)" stop-opacity="1"/>
<stop offset="0.503906" stop-color="rgb(7.362366%, 20.927429%, 47.668457%)" stop-opacity="1"/>
<stop offset="0.507812" stop-color="rgb(7.304382%, 20.761108%, 47.291565%)" stop-opacity="1"/>
<stop offset="0.511719" stop-color="rgb(7.246399%, 20.596313%, 46.914673%)" stop-opacity="1"/>
<stop offset="0.515625" stop-color="rgb(7.188416%, 20.431519%, 46.537781%)" stop-opacity="1"/>
<stop offset="0.519531" stop-color="rgb(7.130432%, 20.265198%, 46.160889%)" stop-opacity="1"/>
<stop offset="0.523438" stop-color="rgb(7.072449%, 20.100403%, 45.783997%)" stop-opacity="1"/>
<stop offset="0.527344" stop-color="rgb(7.012939%, 19.934082%, 45.407104%)" stop-opacity="1"/>
<stop offset="0.53125" stop-color="rgb(6.954956%, 19.769287%, 45.030212%)" stop-opacity="1"/>
<stop offset="0.535156" stop-color="rgb(6.896973%, 19.602966%, 44.65332%)" stop-opacity="1"/>
<stop offset="0.539062" stop-color="rgb(6.838989%, 19.438171%, 44.276428%)" stop-opacity="1"/>
<stop offset="0.542969" stop-color="rgb(6.781006%, 19.273376%, 43.899536%)" stop-opacity="1"/>
<stop offset="0.546875" stop-color="rgb(6.723022%, 19.107056%, 43.522644%)" stop-opacity="1"/>
<stop offset="0.550781" stop-color="rgb(6.663513%, 18.942261%, 43.145752%)" stop-opacity="1"/>
<stop offset="0.554688" stop-color="rgb(6.60553%, 18.77594%, 42.770386%)" stop-opacity="1"/>
<stop offset="0.558594" stop-color="rgb(6.547546%, 18.611145%, 42.393494%)" stop-opacity="1"/>
<stop offset="0.5625" stop-color="rgb(6.489563%, 18.44635%, 42.016602%)" stop-opacity="1"/>
<stop offset="0.566406" stop-color="rgb(6.43158%, 18.280029%, 41.639709%)" stop-opacity="1"/>
<stop offset="0.570312" stop-color="rgb(6.373596%, 18.115234%, 41.262817%)" stop-opacity="1"/>
<stop offset="0.574219" stop-color="rgb(6.315613%, 17.948914%, 40.885925%)" stop-opacity="1"/>
<stop offset="0.578125" stop-color="rgb(6.256104%, 17.784119%, 40.509033%)" stop-opacity="1"/>
<stop offset="0.582031" stop-color="rgb(6.19812%, 17.617798%, 40.132141%)" stop-opacity="1"/>
<stop offset="0.585938" stop-color="rgb(6.140137%, 17.453003%, 39.755249%)" stop-opacity="1"/>
<stop offset="0.589844" stop-color="rgb(6.082153%, 17.288208%, 39.378357%)" stop-opacity="1"/>
<stop offset="0.59375" stop-color="rgb(6.02417%, 17.121887%, 39.001465%)" stop-opacity="1"/>
<stop offset="0.597656" stop-color="rgb(5.966187%, 16.957092%, 38.624573%)" stop-opacity="1"/>
<stop offset="0.601562" stop-color="rgb(5.908203%, 16.790771%, 38.247681%)" stop-opacity="1"/>
<stop offset="0.605469" stop-color="rgb(5.848694%, 16.625977%, 37.870789%)" stop-opacity="1"/>
<stop offset="0.609375" stop-color="rgb(5.79071%, 16.459656%, 37.493896%)" stop-opacity="1"/>
<stop offset="0.613281" stop-color="rgb(5.732727%, 16.294861%, 37.117004%)" stop-opacity="1"/>
<stop offset="0.617188" stop-color="rgb(5.674744%, 16.130066%, 36.740112%)" stop-opacity="1"/>
<stop offset="0.621094" stop-color="rgb(5.61676%, 15.963745%, 36.36322%)" stop-opacity="1"/>
<stop offset="0.625" stop-color="rgb(5.558777%, 15.79895%, 35.986328%)" stop-opacity="1"/>
<stop offset="0.628906" stop-color="rgb(5.500793%, 15.632629%, 35.609436%)" stop-opacity="1"/>
<stop offset="0.632812" stop-color="rgb(5.441284%, 15.467834%, 35.232544%)" stop-opacity="1"/>
<stop offset="0.636719" stop-color="rgb(5.383301%, 15.301514%, 34.855652%)" stop-opacity="1"/>
<stop offset="0.640625" stop-color="rgb(5.325317%, 15.136719%, 34.47876%)" stop-opacity="1"/>
<stop offset="0.644531" stop-color="rgb(5.267334%, 14.971924%, 34.101868%)" stop-opacity="1"/>
<stop offset="0.648438" stop-color="rgb(5.209351%, 14.805603%, 33.724976%)" stop-opacity="1"/>
<stop offset="0.652344" stop-color="rgb(5.151367%, 14.640808%, 33.348083%)" stop-opacity="1"/>
<stop offset="0.65625" stop-color="rgb(5.091858%, 14.474487%, 32.971191%)" stop-opacity="1"/>
<stop offset="0.660156" stop-color="rgb(5.033875%, 14.309692%, 32.594299%)" stop-opacity="1"/>
<stop offset="0.664062" stop-color="rgb(4.975891%, 14.143372%, 32.218933%)" stop-opacity="1"/>
<stop offset="0.667969" stop-color="rgb(4.917908%, 13.978577%, 31.842041%)" stop-opacity="1"/>
<stop offset="0.671875" stop-color="rgb(4.859924%, 13.813782%, 31.465149%)" stop-opacity="1"/>
<stop offset="0.675781" stop-color="rgb(4.801941%, 13.647461%, 31.088257%)" stop-opacity="1"/>
<stop offset="0.679688" stop-color="rgb(4.743958%, 13.482666%, 30.711365%)" stop-opacity="1"/>
<stop offset="0.683594" stop-color="rgb(4.684448%, 13.316345%, 30.334473%)" stop-opacity="1"/>
<stop offset="0.6875" stop-color="rgb(4.626465%, 13.15155%, 29.957581%)" stop-opacity="1"/>
<stop offset="0.691406" stop-color="rgb(4.568481%, 12.986755%, 29.580688%)" stop-opacity="1"/>
<stop offset="0.695312" stop-color="rgb(4.510498%, 12.820435%, 29.203796%)" stop-opacity="1"/>
<stop offset="0.699219" stop-color="rgb(4.452515%, 12.65564%, 28.826904%)" stop-opacity="1"/>
<stop offset="0.703125" stop-color="rgb(4.394531%, 12.489319%, 28.450012%)" stop-opacity="1"/>
<stop offset="0.707031" stop-color="rgb(4.336548%, 12.324524%, 28.07312%)" stop-opacity="1"/>
<stop offset="0.710938" stop-color="rgb(4.277039%, 12.158203%, 27.696228%)" stop-opacity="1"/>
<stop offset="0.714844" stop-color="rgb(4.219055%, 11.993408%, 27.319336%)" stop-opacity="1"/>
<stop offset="0.71875" stop-color="rgb(4.161072%, 11.828613%, 26.942444%)" stop-opacity="1"/>
<stop offset="0.722656" stop-color="rgb(4.103088%, 11.662292%, 26.565552%)" stop-opacity="1"/>
<stop offset="0.726562" stop-color="rgb(4.045105%, 11.497498%, 26.18866%)" stop-opacity="1"/>
<stop offset="0.730469" stop-color="rgb(3.987122%, 11.331177%, 25.811768%)" stop-opacity="1"/>
<stop offset="0.734375" stop-color="rgb(3.927612%, 11.166382%, 25.434875%)" stop-opacity="1"/>
<stop offset="0.738281" stop-color="rgb(3.869629%, 11.000061%, 25.057983%)" stop-opacity="1"/>
<stop offset="0.742188" stop-color="rgb(3.811646%, 10.835266%, 24.681091%)" stop-opacity="1"/>
<stop offset="0.746094" stop-color="rgb(3.753662%, 10.670471%, 24.304199%)" stop-opacity="1"/>
<stop offset="0.75" stop-color="rgb(3.695679%, 10.50415%, 23.927307%)" stop-opacity="1"/>
<stop offset="0.753906" stop-color="rgb(3.637695%, 10.339355%, 23.550415%)" stop-opacity="1"/>
<stop offset="0.757812" stop-color="rgb(3.579712%, 10.173035%, 23.173523%)" stop-opacity="1"/>
<stop offset="0.761719" stop-color="rgb(3.520203%, 10.00824%, 22.796631%)" stop-opacity="1"/>
<stop offset="0.765625" stop-color="rgb(3.462219%, 9.841919%, 22.419739%)" stop-opacity="1"/>
<stop offset="0.769531" stop-color="rgb(3.404236%, 9.677124%, 22.042847%)" stop-opacity="1"/>
<stop offset="0.773438" stop-color="rgb(3.346252%, 9.512329%, 21.665955%)" stop-opacity="1"/>
<stop offset="0.777344" stop-color="rgb(3.288269%, 9.346008%, 21.290588%)" stop-opacity="1"/>
<stop offset="0.78125" stop-color="rgb(3.230286%, 9.181213%, 20.913696%)" stop-opacity="1"/>
<stop offset="0.785156" stop-color="rgb(3.172302%, 9.014893%, 20.536804%)" stop-opacity="1"/>
<stop offset="0.789062" stop-color="rgb(3.112793%, 8.850098%, 20.159912%)" stop-opacity="1"/>
<stop offset="0.792969" stop-color="rgb(3.05481%, 8.685303%, 19.78302%)" stop-opacity="1"/>
<stop offset="0.796875" stop-color="rgb(2.996826%, 8.518982%, 19.406128%)" stop-opacity="1"/>
<stop offset="0.800781" stop-color="rgb(2.938843%, 8.354187%, 19.029236%)" stop-opacity="1"/>
<stop offset="0.804688" stop-color="rgb(2.880859%, 8.187866%, 18.652344%)" stop-opacity="1"/>
<stop offset="0.808594" stop-color="rgb(2.822876%, 8.023071%, 18.275452%)" stop-opacity="1"/>
<stop offset="0.8125" stop-color="rgb(2.764893%, 7.85675%, 17.89856%)" stop-opacity="1"/>
<stop offset="0.816406" stop-color="rgb(2.705383%, 7.691956%, 17.521667%)" stop-opacity="1"/>
<stop offset="0.820312" stop-color="rgb(2.6474%, 7.527161%, 17.144775%)" stop-opacity="1"/>
<stop offset="0.824219" stop-color="rgb(2.589417%, 7.36084%, 16.767883%)" stop-opacity="1"/>
<stop offset="0.828125" stop-color="rgb(2.531433%, 7.196045%, 16.390991%)" stop-opacity="1"/>
<stop offset="0.832031" stop-color="rgb(2.47345%, 7.029724%, 16.014099%)" stop-opacity="1"/>
<stop offset="0.835938" stop-color="rgb(2.415466%, 6.864929%, 15.637207%)" stop-opacity="1"/>
<stop offset="0.839844" stop-color="rgb(2.355957%, 6.698608%, 15.260315%)" stop-opacity="1"/>
<stop offset="0.84375" stop-color="rgb(2.297974%, 6.533813%, 14.883423%)" stop-opacity="1"/>
<stop offset="0.847656" stop-color="rgb(2.23999%, 6.369019%, 14.506531%)" stop-opacity="1"/>
<stop offset="0.851562" stop-color="rgb(2.182007%, 6.202698%, 14.129639%)" stop-opacity="1"/>
<stop offset="0.855469" stop-color="rgb(2.124023%, 6.037903%, 13.752747%)" stop-opacity="1"/>
<stop offset="0.859375" stop-color="rgb(2.06604%, 5.871582%, 13.375854%)" stop-opacity="1"/>
<stop offset="0.863281" stop-color="rgb(2.008057%, 5.706787%, 12.998962%)" stop-opacity="1"/>
<stop offset="0.867188" stop-color="rgb(1.948547%, 5.540466%, 12.62207%)" stop-opacity="1"/>
<stop offset="0.871094" stop-color="rgb(1.890564%, 5.375671%, 12.245178%)" stop-opacity="1"/>
<stop offset="0.875" stop-color="rgb(1.832581%, 5.210876%, 11.868286%)" stop-opacity="1"/>
<stop offset="0.878906" stop-color="rgb(1.774597%, 5.044556%, 11.491394%)" stop-opacity="1"/>
<stop offset="0.882812" stop-color="rgb(1.716614%, 4.879761%, 11.114502%)" stop-opacity="1"/>
<stop offset="0.886719" stop-color="rgb(1.65863%, 4.71344%, 10.739136%)" stop-opacity="1"/>
<stop offset="0.890625" stop-color="rgb(1.600647%, 4.548645%, 10.362244%)" stop-opacity="1"/>
<stop offset="0.894531" stop-color="rgb(1.541138%, 4.38385%, 9.985352%)" stop-opacity="1"/>
<stop offset="0.898438" stop-color="rgb(1.483154%, 4.217529%, 9.608459%)" stop-opacity="1"/>
<stop offset="0.902344" stop-color="rgb(1.425171%, 4.052734%, 9.231567%)" stop-opacity="1"/>
<stop offset="0.90625" stop-color="rgb(1.367188%, 3.886414%, 8.854675%)" stop-opacity="1"/>
<stop offset="0.910156" stop-color="rgb(1.309204%, 3.721619%, 8.477783%)" stop-opacity="1"/>
<stop offset="0.914062" stop-color="rgb(1.251221%, 3.555298%, 8.100891%)" stop-opacity="1"/>
<stop offset="0.917969" stop-color="rgb(1.191711%, 3.390503%, 7.723999%)" stop-opacity="1"/>
<stop offset="0.921875" stop-color="rgb(1.133728%, 3.225708%, 7.347107%)" stop-opacity="1"/>
<stop offset="0.925781" stop-color="rgb(1.075745%, 3.059387%, 6.970215%)" stop-opacity="1"/>
<stop offset="0.929688" stop-color="rgb(1.017761%, 2.894592%, 6.593323%)" stop-opacity="1"/>
<stop offset="0.933594" stop-color="rgb(0.959778%, 2.728271%, 6.216431%)" stop-opacity="1"/>
<stop offset="0.9375" stop-color="rgb(0.901794%, 2.563477%, 5.839539%)" stop-opacity="1"/>
<stop offset="0.941406" stop-color="rgb(0.843811%, 2.397156%, 5.462646%)" stop-opacity="1"/>
<stop offset="0.945312" stop-color="rgb(0.784302%, 2.232361%, 5.085754%)" stop-opacity="1"/>
<stop offset="0.949219" stop-color="rgb(0.726318%, 2.067566%, 4.708862%)" stop-opacity="1"/>
<stop offset="0.953125" stop-color="rgb(0.668335%, 1.901245%, 4.33197%)" stop-opacity="1"/>
<stop offset="0.957031" stop-color="rgb(0.610352%, 1.73645%, 3.955078%)" stop-opacity="1"/>
<stop offset="0.960938" stop-color="rgb(0.552368%, 1.570129%, 3.578186%)" stop-opacity="1"/>
<stop offset="0.964844" stop-color="rgb(0.494385%, 1.405334%, 3.201294%)" stop-opacity="1"/>
<stop offset="0.96875" stop-color="rgb(0.436401%, 1.239014%, 2.824402%)" stop-opacity="1"/>
<stop offset="0.972656" stop-color="rgb(0.376892%, 1.074219%, 2.44751%)" stop-opacity="1"/>
<stop offset="0.976562" stop-color="rgb(0.318909%, 0.909424%, 2.070618%)" stop-opacity="1"/>
<stop offset="0.980469" stop-color="rgb(0.260925%, 0.743103%, 1.693726%)" stop-opacity="1"/>
<stop offset="0.984375" stop-color="rgb(0.202942%, 0.578308%, 1.316833%)" stop-opacity="1"/>
<stop offset="0.988281" stop-color="rgb(0.144958%, 0.411987%, 0.939941%)" stop-opacity="1"/>
<stop offset="0.992188" stop-color="rgb(0.0869751%, 0.247192%, 0.563049%)" stop-opacity="1"/>
<stop offset="0.996094" stop-color="rgb(0.0289917%, 0.0823975%, 0.187683%)" stop-opacity="1"/>
<stop offset="1" stop-color="rgb(0%, 0%, 0%)" stop-opacity="1"/>
</radialGradient>
</defs>
<g clip-path="url(#clip-0)">
<g clip-path="url(#clip-1)">
<path fill-rule="nonzero" fill="url(#radial-pattern-0)" d="M 0 0 L 0 3499.5 L 3499.5 3499.5 L 3499.5 0 Z M 0 0 "/>
</g>
</g>
<path fill-rule="nonzero" fill="rgb(27.43988%, 78.514099%, 99.21875%)" fill-opacity="1" d="M 2420.671875 489.371094 C 2391.550781 489.371094 2367.949219 512.96875 2367.949219 542.089844 C 2367.949219 546.640625 2368.519531 551.070312 2369.609375 555.28125 L 2369.601562 555.28125 L 2267.550781 657.328125 C 2262.519531 662.359375 2259.699219 669.171875 2259.699219 676.269531 L 2259.699219 933.539062 L 2133.359375 1059.878906 C 2122.898438 1070.339844 2122.898438 1087.300781 2133.359375 1097.761719 C 2138.589844 1102.988281 2145.449219 1105.609375 2152.300781 1105.609375 C 2159.160156 1105.609375 2166.011719 1102.988281 2171.238281 1097.761719 L 2305.429688 963.578125 C 2310.449219 958.558594 2313.269531 951.738281 2313.269531 944.640625 L 2313.269531 687.359375 L 2407.480469 593.160156 L 2407.488281 593.160156 C 2411.699219 594.238281 2416.121094 594.820312 2420.671875 594.820312 C 2449.789062 594.820312 2473.390625 571.210938 2473.390625 542.089844 C 2473.390625 512.96875 2449.789062 489.371094 2420.671875 489.371094 Z M 1347.199219 221 C 1318.078125 221 1294.480469 244.601562 1294.480469 273.71875 L 1294.480469 273.730469 C 1294.480469 293.070312 1304.898438 309.988281 1320.429688 319.160156 L 1320.410156 319.160156 L 1320.410156 810.460938 C 1320.410156 817.558594 1323.230469 824.371094 1328.261719 829.390625 L 1454.601562 955.730469 L 1454.601562 1078.820312 C 1454.601562 1093.609375 1466.589844 1105.609375 1481.378906 1105.609375 C 1496.179688 1105.609375 1508.160156 1093.609375 1508.160156 1078.820312 L 1508.160156 944.640625 C 1508.160156 937.53125 1505.339844 930.71875 1500.320312 925.699219 L 1373.980469 799.359375 L 1373.980469 319.160156 L 1373.960938 319.160156 C 1389.5 309.988281 1399.921875 293.070312 1399.921875 273.730469 L 1399.921875 273.71875 C 1399.921875 244.601562 1376.320312 221 1347.199219 221 Z M 1749.75 623.550781 C 1720.628906 623.550781 1697.03125 647.160156 1697.03125 676.269531 L 1697.03125 676.28125 C 1697.03125 695.621094 1707.441406 712.53125 1722.980469 721.710938 L 1722.96875 721.710938 L 1722.96875 1078.820312 C 1722.96875 1093.609375 1734.960938 1105.609375 1749.75 1105.609375 C 1764.539062 1105.609375 1776.539062 1093.609375 1776.539062 1078.820312 L 1776.539062 721.710938 L 1776.519531 721.710938 C 1792.050781 712.53125 1802.46875 695.621094 1802.46875 676.28125 L 1802.46875 676.269531 C 1802.46875 647.160156 1778.871094 623.550781 1749.75 623.550781 Z M 2018.121094 355.179688 C 1989 355.179688 1965.390625 378.78125 1965.390625 407.910156 C 1965.390625 427.25 1975.808594 444.171875 1991.351562 453.339844 L 1991.328125 453.339844 L 1991.328125 665.179688 L 1865 791.519531 C 1859.96875 796.539062 1857.148438 803.351562 1857.148438 810.449219 L 1857.148438 1078.820312 C 1857.148438 1093.609375 1869.140625 1105.609375 1883.929688 1105.609375 C 1898.730469 1105.609375 1910.71875 1093.609375 1910.71875 1078.820312 L 1910.71875 821.550781 L 2037.058594 695.210938 C 2042.078125 690.191406 2044.898438 683.371094 2044.898438 676.269531 L 2044.898438 453.339844 L 2044.890625 453.339844 C 2060.421875 444.171875 2070.839844 427.25 2070.839844 407.910156 C 2070.839844 378.78125 2047.230469 355.179688 2018.121094 355.179688 Z M 2152.300781 221 C 2123.179688 221 2099.578125 244.601562 2099.578125 273.71875 L 2099.578125 273.730469 C 2099.578125 293.070312 2110 309.980469 2125.53125 319.160156 L 2125.519531 319.160156 L 2125.519531 799.359375 L 1999.179688 925.699219 C 1994.160156 930.71875 1991.328125 937.53125 1991.328125 944.640625 L 1991.328125 1078.820312 C 1991.328125 1093.609375 2003.320312 1105.609375 2018.121094 1105.609375 C 2032.910156 1105.609375 2044.898438 1093.609375 2044.898438 1078.820312 L 2044.898438 955.730469 L 2171.238281 829.390625 C 2176.261719 824.371094 2179.089844 817.558594 2179.089844 810.449219 L 2179.089844 319.160156 L 2179.070312 319.160156 C 2194.609375 309.980469 2205.019531 293.070312 2205.019531 273.730469 L 2205.019531 273.71875 C 2205.019531 244.601562 2181.421875 221 2152.300781 221 Z M 1078.828125 489.371094 C 1049.710938 489.371094 1026.109375 512.96875 1026.109375 542.089844 C 1026.109375 571.210938 1049.710938 594.820312 1078.828125 594.820312 C 1083.378906 594.820312 1087.789062 594.238281 1092 593.160156 L 1092.019531 593.160156 L 1186.230469 687.371094 L 1186.230469 944.640625 C 1186.230469 951.738281 1189.050781 958.558594 1194.070312 963.578125 L 1328.261719 1097.761719 C 1333.488281 1102.988281 1340.339844 1105.609375 1347.199219 1105.609375 C 1354.050781 1105.609375 1360.910156 1102.988281 1366.140625 1097.761719 C 1376.601562 1087.300781 1376.601562 1070.339844 1366.140625 1059.878906 L 1239.800781 933.539062 L 1239.800781 676.269531 C 1239.800781 669.171875 1236.980469 662.359375 1231.949219 657.328125 L 1129.910156 555.289062 L 1129.890625 555.289062 C 1130.980469 551.070312 1131.558594 546.648438 1131.558594 542.089844 C 1131.558594 512.96875 1107.949219 489.371094 1078.828125 489.371094 Z M 1481.378906 355.179688 C 1452.269531 355.179688 1428.660156 378.78125 1428.660156 407.910156 C 1428.660156 427.261719 1439.078125 444.171875 1454.621094 453.339844 L 1454.601562 453.339844 L 1454.601562 676.269531 C 1454.601562 683.371094 1457.421875 690.191406 1462.441406 695.210938 L 1588.78125 821.550781 L 1588.78125 1078.820312 C 1588.78125 1093.621094 1600.769531 1105.609375 1615.570312 1105.609375 C 1630.359375 1105.609375 1642.351562 1093.621094 1642.351562 1078.820312 L 1642.351562 810.460938 C 1642.351562 803.351562 1639.53125 796.539062 1634.5 791.519531 L 1508.160156 665.179688 L 1508.160156 453.339844 L 1508.148438 453.339844 C 1523.679688 444.171875 1534.109375 427.261719 1534.109375 407.910156 C 1534.109375 378.78125 1510.5 355.179688 1481.378906 355.179688 Z M 810.460938 1026.101562 C 781.34375 1026.101562 757.738281 1049.710938 757.738281 1078.820312 L 757.738281 1078.828125 C 757.738281 1107.941406 781.34375 1131.550781 810.460938 1131.550781 C 829.804688 1131.550781 846.710938 1121.140625 855.886719 1105.609375 L 855.863281 1105.609375 L 933.550781 1105.609375 L 1059.890625 1231.949219 C 1064.910156 1236.96875 1071.730469 1239.800781 1078.828125 1239.800781 L 1213.019531 1239.789062 C 1227.808594 1239.789062 1239.800781 1227.800781 1239.800781 1213.011719 C 1239.800781 1198.210938 1227.808594 1186.21875 1213.019531 1186.21875 L 1213.011719 1186.21875 L 1089.929688 1186.230469 L 963.585938 1059.890625 C 958.5625 1054.859375 951.75 1052.039062 944.648438 1052.039062 L 855.886719 1052.039062 C 846.710938 1036.519531 829.804688 1026.101562 810.460938 1026.101562 Z M 2689.039062 1026.101562 C 2669.699219 1026.101562 2652.789062 1036.519531 2643.609375 1052.039062 L 2554.851562 1052.039062 C 2547.75 1052.039062 2540.941406 1054.859375 2535.910156 1059.890625 L 2409.570312 1186.230469 L 2286.480469 1186.21875 C 2271.691406 1186.21875 2259.699219 1198.210938 2259.699219 1213.011719 C 2259.699219 1227.800781 2271.691406 1239.789062 2286.480469 1239.789062 L 2420.671875 1239.800781 C 2427.769531 1239.800781 2434.589844 1236.96875 2439.609375 1231.949219 L 2565.949219 1105.609375 L 2643.621094 1105.609375 L 2643.609375 1105.609375 C 2652.789062 1121.140625 2669.699219 1131.550781 2689.039062 1131.550781 C 2718.160156 1131.550781 2741.761719 1107.941406 2741.761719 1078.828125 L 2741.761719 1078.820312 C 2741.761719 1049.710938 2718.160156 1026.101562 2689.039062 1026.101562 Z M 407.910156 1160.289062 C 378.792969 1160.289062 355.1875 1183.890625 355.1875 1213.011719 C 355.1875 1242.128906 378.792969 1265.730469 407.910156 1265.730469 C 427.253906 1265.730469 444.164062 1255.320312 453.335938 1239.789062 L 665.183594 1239.789062 L 791.523438 1366.128906 C 796.546875 1371.148438 803.359375 1373.980469 810.460938 1373.980469 L 1078.828125 1373.980469 C 1093.621094 1373.980469 1105.609375 1361.980469 1105.609375 1347.191406 C 1105.609375 1332.398438 1093.621094 1320.410156 1078.828125 1320.410156 L 821.554688 1320.410156 L 695.21875 1194.070312 C 690.195312 1189.050781 683.382812 1186.21875 676.277344 1186.21875 L 453.332031 1186.21875 C 444.160156 1170.699219 427.25 1160.289062 407.910156 1160.289062 Z M 3091.589844 1160.289062 C 3072.25 1160.289062 3055.339844 1170.699219 3046.160156 1186.21875 L 2823.21875 1186.21875 C 2816.121094 1186.21875 2809.308594 1189.050781 2804.28125 1194.070312 L 2677.941406 1320.410156 L 2420.671875 1320.410156 C 2405.878906 1320.410156 2393.890625 1332.398438 2393.890625 1347.191406 C 2393.890625 1361.980469 2405.878906 1373.980469 2420.671875 1373.980469 L 2689.039062 1373.980469 C 2696.140625 1373.980469 2702.949219 1371.148438 2707.980469 1366.128906 L 2834.320312 1239.789062 L 3046.160156 1239.789062 C 3055.339844 1255.320312 3072.25 1265.730469 3091.589844 1265.730469 C 3120.710938 1265.730469 3144.308594 1242.128906 3144.308594 1213.011719 C 3144.308594 1183.890625 3120.710938 1160.289062 3091.589844 1160.289062 Z M 2554.851562 1562.839844 C 2535.511719 1562.839844 2518.609375 1573.25 2509.429688 1588.78125 L 2420.671875 1588.769531 L 2420.671875 1588.78125 C 2405.878906 1588.769531 2393.890625 1600.769531 2393.890625 1615.558594 C 2393.890625 1630.351562 2405.878906 1642.339844 2420.671875 1642.339844 L 2509.441406 1642.339844 L 2509.429688 1642.339844 C 2518.601562 1657.871094 2535.511719 1668.28125 2554.851562 1668.28125 C 2583.96875 1668.28125 2607.578125 1644.679688 2607.578125 1615.558594 C 2607.578125 1586.441406 2583.96875 1562.839844 2554.851562 1562.839844 Z M 2420.671875 1454.589844 C 2405.878906 1454.589844 2393.890625 1466.578125 2393.890625 1481.371094 C 2393.890625 1496.171875 2405.878906 1508.160156 2420.671875 1508.160156 L 2543.761719 1508.160156 L 2670.101562 1634.5 C 2675.121094 1639.519531 2681.929688 1642.339844 2689.039062 1642.339844 L 3046.171875 1642.339844 L 3046.160156 1642.351562 C 3055.339844 1657.871094 3072.25 1668.28125 3091.589844 1668.28125 C 3120.710938 1668.28125 3144.308594 1644.679688 3144.308594 1615.558594 C 3144.308594 1586.441406 3120.710938 1562.839844 3091.589844 1562.839844 C 3072.25 1562.839844 3055.339844 1573.25 3046.160156 1588.78125 L 2700.128906 1588.769531 L 2573.789062 1462.441406 C 2568.769531 1457.410156 2561.960938 1454.589844 2554.859375 1454.589844 Z M 1078.828125 1454.589844 L 944.644531 1454.589844 C 937.542969 1454.589844 930.730469 1457.410156 925.707031 1462.441406 L 799.367188 1588.78125 L 453.335938 1588.78125 C 444.160156 1573.25 427.253906 1562.839844 407.910156 1562.839844 C 378.792969 1562.839844 355.1875 1586.441406 355.1875 1615.558594 C 355.1875 1644.679688 378.792969 1668.289062 407.910156 1668.289062 C 427.253906 1668.289062 444.160156 1657.871094 453.335938 1642.339844 L 453.304688 1642.351562 L 810.460938 1642.339844 C 817.566406 1642.339844 824.378906 1639.519531 829.402344 1634.5 L 955.742188 1508.160156 L 1078.828125 1508.160156 C 1093.621094 1508.160156 1105.609375 1496.171875 1105.609375 1481.371094 C 1105.609375 1466.578125 1093.621094 1454.589844 1078.828125 1454.589844 Z M 944.648438 1562.839844 C 915.527344 1562.839844 891.921875 1586.441406 891.921875 1615.558594 C 891.921875 1644.679688 915.527344 1668.289062 944.648438 1668.289062 C 963.988281 1668.289062 980.898438 1657.871094 990.070312 1642.339844 L 990.046875 1642.339844 L 1078.828125 1642.339844 C 1093.621094 1642.339844 1105.609375 1630.351562 1105.609375 1615.558594 C 1105.609375 1600.769531 1093.621094 1588.769531 1078.828125 1588.769531 L 1078.828125 1588.78125 L 990.070312 1588.78125 C 980.894531 1573.25 963.988281 1562.839844 944.648438 1562.839844 Z M 2823.21875 1697.019531 C 2803.878906 1697.019531 2786.96875 1707.429688 2777.800781 1722.960938 L 2420.671875 1722.960938 C 2405.878906 1722.960938 2393.890625 1734.949219 2393.890625 1749.738281 C 2393.890625 1764.53125 2405.878906 1776.53125 2420.671875 1776.53125 L 2777.808594 1776.53125 L 2777.800781 1776.53125 C 2786.96875 1792.058594 2803.878906 1802.46875 2823.21875 1802.46875 C 2852.339844 1802.46875 2875.949219 1778.859375 2875.949219 1749.75 L 2875.949219 1749.738281 C 2875.949219 1720.621094 2852.339844 1697.019531 2823.21875 1697.019531 Z M 676.277344 1697.019531 C 647.160156 1697.019531 623.554688 1720.621094 623.554688 1749.738281 L 623.554688 1749.75 C 623.554688 1778.871094 647.160156 1802.46875 676.277344 1802.46875 C 695.621094 1802.46875 712.527344 1792.058594 721.703125 1776.53125 L 721.675781 1776.53125 L 1078.828125 1776.53125 C 1093.621094 1776.53125 1105.609375 1764.53125 1105.609375 1749.738281 C 1105.609375 1734.949219 1093.621094 1722.960938 1078.828125 1722.960938 L 721.703125 1722.960938 C 712.527344 1707.429688 695.621094 1697.019531 676.277344 1697.019531 Z M 139.542969 1697.019531 C 110.425781 1697.019531 86.820312 1720.621094 86.820312 1749.738281 L 86.820312 1749.75 C 86.820312 1778.871094 110.425781 1802.46875 139.542969 1802.46875 C 158.882812 1802.46875 175.792969 1792.058594 184.964844 1776.53125 L 184.933594 1776.53125 L 531 1776.53125 L 657.339844 1902.871094 C 662.363281 1907.890625 669.175781 1910.710938 676.277344 1910.710938 L 1078.828125 1910.710938 C 1093.621094 1910.710938 1105.609375 1898.71875 1105.609375 1883.929688 C 1105.609375 1869.128906 1093.621094 1857.140625 1078.828125 1857.140625 L 687.371094 1857.148438 L 561.035156 1730.808594 C 556.011719 1725.78125 549.199219 1722.960938 542.09375 1722.960938 L 184.96875 1722.960938 C 175.792969 1707.429688 158.882812 1697.019531 139.542969 1697.019531 Z M 3359.960938 1697.019531 C 3340.621094 1697.019531 3323.710938 1707.429688 3314.53125 1722.960938 L 2957.410156 1722.960938 C 2950.300781 1722.960938 2943.488281 1725.78125 2938.46875 1730.808594 L 2812.128906 1857.140625 L 2420.671875 1857.140625 C 2405.878906 1857.140625 2393.890625 1869.128906 2393.890625 1883.929688 C 2393.890625 1898.71875 2405.878906 1910.710938 2420.671875 1910.710938 L 2823.21875 1910.710938 C 2830.320312 1910.710938 2837.140625 1907.890625 2842.160156 1902.871094 L 2968.5 1776.53125 L 3314.53125 1776.53125 C 3323.710938 1792.058594 3340.621094 1802.46875 3359.960938 1802.46875 C 3389.070312 1802.46875 3412.679688 1778.871094 3412.679688 1749.75 L 3412.679688 1749.738281 C 3412.679688 1720.621094 3389.070312 1697.019531 3359.960938 1697.019531 Z M 2420.671875 2125.511719 C 2405.878906 2125.511719 2393.890625 2137.5 2393.890625 2152.289062 C 2393.890625 2167.089844 2405.878906 2179.078125 2420.671875 2179.078125 L 2677.941406 2179.078125 L 2804.28125 2305.421875 C 2809.308594 2310.441406 2816.121094 2313.261719 2823.21875 2313.261719 L 3046.171875 2313.269531 L 3046.160156 2313.269531 C 3055.339844 2328.789062 3072.25 2339.210938 3091.589844 2339.210938 C 3120.710938 2339.210938 3144.308594 2315.601562 3144.308594 2286.480469 C 3144.308594 2257.359375 3120.710938 2233.75 3091.589844 2233.75 C 3072.25 2233.75 3055.339844 2244.171875 3046.160156 2259.699219 L 2834.320312 2259.691406 L 2707.980469 2133.359375 C 2702.949219 2128.339844 2696.140625 2125.519531 2689.039062 2125.519531 Z M 1078.828125 2125.511719 L 810.460938 2125.519531 C 803.359375 2125.519531 796.546875 2128.339844 791.523438 2133.359375 L 665.183594 2259.691406 L 453.335938 2259.691406 L 453.335938 2259.699219 C 444.160156 2244.171875 427.253906 2233.75 407.910156 2233.75 C 378.792969 2233.75 355.1875 2257.359375 355.1875 2286.480469 C 355.1875 2315.601562 378.792969 2339.210938 407.910156 2339.210938 C 427.253906 2339.210938 444.160156 2328.789062 453.335938 2313.269531 L 453.304688 2313.269531 L 676.277344 2313.261719 C 683.382812 2313.261719 690.195312 2310.441406 695.21875 2305.421875 L 821.554688 2179.078125 L 1078.828125 2179.078125 C 1093.621094 2179.078125 1105.609375 2167.089844 1105.609375 2152.289062 C 1105.609375 2137.5 1093.621094 2125.511719 1078.828125 2125.511719 Z M 2286.480469 2259.691406 C 2271.691406 2259.691406 2259.699219 2271.679688 2259.699219 2286.480469 C 2259.699219 2301.269531 2271.691406 2313.261719 2286.480469 2313.261719 L 2409.570312 2313.269531 L 2535.910156 2439.601562 C 2540.941406 2444.621094 2547.75 2447.441406 2554.851562 2447.441406 L 2643.621094 2447.449219 L 2643.609375 2447.449219 C 2652.789062 2462.980469 2669.699219 2473.390625 2689.039062 2473.390625 C 2718.160156 2473.390625 2741.761719 2449.78125 2741.761719 2420.660156 C 2741.761719 2391.539062 2718.160156 2367.941406 2689.039062 2367.941406 C 2669.699219 2367.941406 2652.789062 2378.359375 2643.609375 2393.878906 L 2565.949219 2393.878906 L 2439.609375 2267.539062 C 2434.589844 2262.519531 2427.769531 2259.699219 2420.671875 2259.699219 Z M 1213.011719 2259.691406 L 1078.828125 2259.699219 C 1071.730469 2259.699219 1064.910156 2262.519531 1059.890625 2267.539062 L 933.550781 2393.878906 L 855.886719 2393.878906 C 846.710938 2378.359375 829.804688 2367.941406 810.464844 2367.941406 C 781.34375 2367.941406 757.738281 2391.539062 757.738281 2420.660156 L 757.738281 2420.671875 C 757.738281 2449.78125 781.34375 2473.390625 810.464844 2473.390625 C 829.804688 2473.390625 846.714844 2462.980469 855.886719 2447.449219 L 855.863281 2447.449219 L 944.648438 2447.441406 C 951.75 2447.441406 958.5625 2444.621094 963.585938 2439.601562 L 1089.929688 2313.269531 L 1213.019531 2313.261719 C 1227.808594 2313.261719 1239.800781 2301.269531 1239.800781 2286.480469 C 1239.800781 2271.691406 1227.808594 2259.691406 1213.019531 2259.691406 Z M 1749.75 2393.878906 C 1734.960938 2393.878906 1722.96875 2405.871094 1722.96875 2420.660156 L 1722.96875 2777.800781 L 1722.949219 2777.800781 C 1707.429688 2786.976562 1697.03125 2803.882812 1697.03125 2823.214844 L 1697.03125 2823.21875 C 1697.03125 2852.335938 1720.628906 2875.941406 1749.75 2875.941406 C 1778.871094 2875.941406 1802.46875 2852.335938 1802.46875 2823.21875 L 1802.46875 2823.214844 C 1802.46875 2803.878906 1792.070312 2786.976562 1776.550781 2777.800781 L 1776.539062 2777.800781 L 1776.539062 2420.660156 C 1776.539062 2405.871094 1764.539062 2393.878906 1749.75 2393.878906 Z M 2152.300781 2393.878906 C 2145.449219 2393.878906 2138.589844 2396.488281 2133.359375 2401.71875 C 2122.898438 2412.179688 2122.898438 2429.140625 2133.359375 2439.601562 L 2259.699219 2565.941406 L 2259.699219 2823.214844 C 2259.699219 2830.316406 2262.519531 2837.128906 2267.550781 2842.152344 L 2369.621094 2944.222656 L 2369.609375 2944.222656 C 2368.519531 2948.433594 2367.949219 2952.847656 2367.949219 2957.398438 L 2367.949219 2957.402344 C 2367.949219 2986.519531 2391.550781 3010.125 2420.671875 3010.125 C 2449.789062 3010.125 2473.390625 2986.519531 2473.390625 2957.402344 L 2473.390625 2957.398438 C 2473.390625 2928.28125 2449.789062 2904.675781 2420.671875 2904.675781 C 2416.121094 2904.675781 2411.699219 2905.25 2407.480469 2906.335938 L 2313.269531 2812.121094 L 2313.269531 2554.847656 C 2313.269531 2547.742188 2310.449219 2540.929688 2305.429688 2535.90625 L 2171.238281 2401.71875 C 2166.011719 2396.488281 2159.160156 2393.878906 2152.300781 2393.878906 Z M 1347.199219 2393.878906 C 1340.339844 2393.878906 1333.488281 2396.488281 1328.261719 2401.71875 L 1194.070312 2535.90625 C 1189.050781 2540.929688 1186.230469 2547.742188 1186.230469 2554.847656 L 1186.230469 2812.121094 L 1092.019531 2906.335938 L 1092.011719 2906.335938 C 1087.800781 2905.25 1083.378906 2904.675781 1078.828125 2904.675781 C 1049.710938 2904.675781 1026.109375 2928.28125 1026.109375 2957.398438 L 1026.109375 2957.402344 C 1026.109375 2986.519531 1049.710938 3010.125 1078.828125 3010.125 C 1107.949219 3010.125 1131.558594 2986.519531 1131.558594 2957.402344 L 1131.558594 2957.398438 C 1131.558594 2952.851562 1130.980469 2948.441406 1129.898438 2944.230469 L 1129.878906 2944.234375 L 1231.949219 2842.152344 C 1236.980469 2837.128906 1239.800781 2830.316406 1239.800781 2823.214844 L 1239.800781 2565.941406 L 1366.140625 2439.601562 C 1376.601562 2429.140625 1376.601562 2412.179688 1366.140625 2401.71875 C 1360.910156 2396.488281 1354.050781 2393.878906 1347.199219 2393.878906 Z M 1615.570312 2393.878906 C 1600.769531 2393.878906 1588.78125 2405.871094 1588.78125 2420.660156 L 1588.78125 2677.9375 L 1462.441406 2804.273438 C 1457.421875 2809.296875 1454.601562 2816.109375 1454.601562 2823.214844 L 1454.601562 3046.171875 L 1454.578125 3046.171875 C 1439.058594 3055.347656 1428.660156 3072.25 1428.660156 3091.582031 L 1428.660156 3091.585938 C 1428.660156 3120.703125 1452.269531 3144.308594 1481.378906 3144.308594 C 1510.5 3144.308594 1534.109375 3120.703125 1534.109375 3091.585938 L 1534.109375 3091.582031 C 1534.109375 3072.25 1523.699219 3055.347656 1508.191406 3046.171875 L 1508.171875 3046.171875 L 1508.171875 2834.308594 L 1634.5 2707.96875 C 1639.53125 2702.945312 1642.351562 2696.132812 1642.351562 2689.03125 L 1642.351562 2420.660156 C 1642.351562 2405.871094 1630.359375 2393.878906 1615.570312 2393.878906 Z M 1883.929688 2393.878906 C 1869.140625 2393.878906 1857.148438 2405.871094 1857.148438 2420.660156 L 1857.148438 2689.03125 C 1857.148438 2696.132812 1859.96875 2702.945312 1865 2707.96875 L 1991.328125 2834.308594 L 1991.328125 3046.167969 L 1991.320312 3046.167969 C 1975.800781 3055.34375 1965.390625 3072.246094 1965.390625 3091.582031 L 1965.390625 3091.585938 C 1965.390625 3120.703125 1989 3144.308594 2018.121094 3144.308594 C 2047.230469 3144.308594 2070.839844 3120.703125 2070.839844 3091.585938 L 2070.839844 3091.582031 C 2070.839844 3072.246094 2060.429688 3055.34375 2044.910156 3046.167969 L 2044.898438 3046.167969 L 2044.898438 2823.214844 C 2044.898438 2816.109375 2042.078125 2809.296875 2037.058594 2804.273438 L 1910.71875 2677.9375 L 1910.71875 2420.660156 C 1910.71875 2405.871094 1898.730469 2393.878906 1883.929688 2393.878906 Z M 1481.378906 2393.878906 C 1466.589844 2393.878906 1454.601562 2405.871094 1454.601562 2420.660156 L 1454.601562 2543.75 L 1328.261719 2670.089844 C 1323.230469 2675.113281 1320.410156 2681.925781 1320.410156 2689.03125 L 1320.410156 3180.355469 L 1320.390625 3180.355469 C 1304.878906 3189.53125 1294.480469 3206.433594 1294.480469 3225.765625 L 1294.480469 3225.769531 C 1294.480469 3254.886719 1318.078125 3278.492188 1347.199219 3278.492188 C 1376.320312 3278.492188 1399.921875 3254.886719 1399.921875 3225.769531 L 1399.921875 3225.765625 C 1399.921875 3206.433594 1389.519531 3189.53125 1374 3180.355469 L 1373.980469 3180.355469 L 1373.980469 2700.125 L 1500.320312 2573.785156 C 1505.339844 2568.761719 1508.171875 2561.949219 1508.171875 2554.847656 L 1508.160156 2420.660156 C 1508.160156 2405.871094 1496.179688 2393.878906 1481.378906 2393.878906 Z M 2018.121094 2393.878906 C 2003.320312 2393.878906 1991.339844 2405.871094 1991.339844 2420.660156 L 1991.328125 2554.847656 C 1991.328125 2561.949219 1994.160156 2568.761719 1999.179688 2573.785156 L 2125.519531 2700.125 L 2125.519531 3180.351562 L 2125.5 3180.351562 C 2109.988281 3189.527344 2099.578125 3206.429688 2099.578125 3225.765625 L 2099.578125 3225.769531 C 2099.578125 3254.886719 2123.179688 3278.492188 2152.300781 3278.492188 C 2181.421875 3278.492188 2205.019531 3254.886719 2205.019531 3225.769531 L 2205.019531 3225.765625 C 2205.019531 3206.429688 2194.621094 3189.527344 2179.101562 3180.351562 L 2179.089844 3180.351562 L 2179.089844 2689.03125 C 2179.089844 2681.925781 2176.269531 2675.113281 2171.238281 2670.089844 L 2044.898438 2543.753906 L 2044.898438 2420.660156 C 2044.898438 2405.871094 2032.910156 2393.878906 2018.121094 2393.878906 Z M 2018.121094 2393.878906 "/>
<path fill-rule="nonzero" fill="rgb(14.892578%, 42.358398%, 96.484375%)" fill-opacity="1" d="M 1052.050781 2152.289062 L 1052.050781 1347.191406 C 1052.050781 1340.089844 1054.871094 1333.28125 1059.890625 1328.25 L 1328.261719 1059.890625 C 1333.28125 1054.859375 1340.089844 1052.039062 1347.199219 1052.039062 L 2152.300781 1052.039062 C 2159.410156 1052.039062 2166.21875 1054.859375 2171.238281 1059.890625 L 2439.609375 1328.25 C 2444.628906 1333.269531 2447.449219 1340.089844 2447.449219 1347.191406 L 2447.449219 2152.300781 C 2447.449219 2159.398438 2444.628906 2166.210938 2439.609375 2171.230469 L 2171.238281 2439.601562 C 2166.21875 2444.621094 2159.410156 2447.441406 2152.300781 2447.441406 L 1347.199219 2447.441406 C 1340.089844 2447.441406 1333.28125 2444.621094 1328.261719 2439.601562 L 1059.890625 2171.230469 C 1054.871094 2166.210938 1052.050781 2159.398438 1052.050781 2152.289062 M 1105.609375 2152.289062 L 1097.769531 2133.359375 L 1366.140625 2401.71875 L 1347.199219 2393.878906 L 2152.300781 2393.878906 L 2133.359375 2401.71875 L 2401.730469 2133.359375 L 2393.890625 2152.300781 L 2393.890625 1347.191406 L 2401.730469 1366.128906 L 2133.359375 1097.761719 L 2152.300781 1105.609375 L 1347.199219 1105.609375 L 1366.140625 1097.761719 L 1097.769531 1366.128906 L 1105.609375 1347.191406 Z M 1105.609375 2152.289062 "/>
<path fill-rule="nonzero" fill="rgb(14.892578%, 42.358398%, 96.484375%)" fill-opacity="1" d="M 1385.390625 1171.039062 L 1171.039062 1385.390625 L 1171.039062 2114.101562 L 1385.390625 2328.460938 L 2114.101562 2328.460938 L 2328.460938 2114.109375 L 2328.460938 1385.390625 L 2114.109375 1171.039062 Z M 1404.558594 2347.621094 Z M 1404.558594 2347.621094 "/>
<path fill-rule="nonzero" fill="rgb(50.976562%, 91.014099%, 99.609375%)" fill-opacity="1" d="M 1694.570312 1472.511719 L 1515.359375 1472.511719 L 1246.558594 2010.128906 L 1425.761719 2010.128906 L 1470.558594 1920.519531 L 1470.558594 1920.53125 L 1694.570312 1920.519531 L 1649.769531 1830.921875 L 1515.359375 1830.921875 L 1515.359375 1830.929688 L 1604.960938 1651.710938 L 1784.171875 2010.128906 L 1963.371094 2010.128906 Z M 2008.171875 1472.511719 C 2008.171875 1651.710938 2008.171875 1830.921875 2008.171875 2010.128906 L 2187.378906 2010.128906 L 2187.378906 1472.511719 C 2127.640625 1472.511719 2067.910156 1472.511719 2008.171875 1472.511719 Z M 2008.171875 1472.511719 "/>
<path fill-rule="nonzero" fill="rgb(27.43988%, 78.514099%, 99.21875%)" fill-opacity="1" d="M 1347.199219 1018.488281 C 1331.199219 1018.488281 1315.851562 1024.851562 1304.539062 1036.160156 L 1304.539062 1036.171875 L 1036.171875 1304.53125 C 1024.859375 1315.851562 1018.5 1331.191406 1018.5 1347.191406 L 1018.5 2152.289062 C 1018.5 2168.300781 1024.859375 2183.640625 1036.171875 2194.949219 L 1304.539062 2463.320312 C 1315.851562 2474.640625 1331.191406 2481 1347.199219 2481 L 2152.300781 2480.988281 L 2152.300781 2481 C 2168.300781 2480.988281 2183.640625 2474.640625 2194.960938 2463.320312 L 2194.960938 2463.328125 L 2463.328125 2194.949219 C 2474.640625 2183.640625 2481 2168.300781 2481 2152.300781 L 2481 1347.191406 C 2481 1331.191406 2474.640625 1315.839844 2463.328125 1304.53125 L 2194.960938 1036.171875 C 2183.648438 1024.859375 2168.308594 1018.5 2152.300781 1018.5 Z M 1347.199219 1052.039062 L 2152.300781 1052.039062 C 2159.410156 1052.039062 2166.21875 1054.859375 2171.238281 1059.890625 L 2439.609375 1328.25 C 2444.628906 1333.269531 2447.449219 1340.089844 2447.449219 1347.191406 L 2447.449219 2152.300781 C 2447.449219 2159.398438 2444.628906 2166.210938 2439.609375 2171.230469 L 2171.238281 2439.601562 C 2166.21875 2444.621094 2159.410156 2447.441406 2152.300781 2447.441406 L 1347.199219 2447.449219 C 1340.089844 2447.449219 1333.28125 2444.628906 1328.261719 2439.609375 L 1059.890625 2171.230469 C 1054.871094 2166.210938 1052.050781 2159.398438 1052.050781 2152.289062 L 1052.050781 1347.191406 C 1052.050781 1340.089844 1054.871094 1333.28125 1059.890625 1328.25 L 1328.261719 1059.890625 C 1333.28125 1054.859375 1340.089844 1052.039062 1347.199219 1052.039062 Z M 1347.199219 1052.039062 "/>
<path fill-rule="nonzero" fill="rgb(27.43988%, 78.514099%, 99.21875%)" fill-opacity="1" d="M 1399.289062 1204.578125 L 2100.210938 1204.578125 L 2294.910156 1399.28125 L 2294.910156 2100.210938 L 2100.210938 2294.910156 L 1399.289062 2294.910156 L 1204.589844 2100.210938 L 1204.589844 1399.28125 Z M 1385.390625 1171.039062 L 1171.039062 1385.390625 L 1171.039062 2114.101562 L 1385.390625 2328.460938 L 2114.101562 2328.460938 L 2328.460938 2114.109375 L 2328.460938 1385.390625 L 2114.109375 1171.039062 Z M 1404.558594 2347.621094 Z M 1404.558594 2347.621094 "/>
</svg>
